<svg width="24" height="23" viewBox="0 0 24 23" fill="none" xmlns="http://www.w3.org/2000/svg">
<ellipse cx="12" cy="11.5" rx="12" ry="11.5" fill="#4B7B53"/>
<path d="M8.85 4H15.15C17.55 4 19.5 5.8525 19.5 8.1325V14.1175C19.5 15.2135 19.0417 16.2646 18.2259 17.0396C17.4101 17.8146 16.3037 18.25 15.15 18.25H8.85C6.45 18.25 4.5 16.3975 4.5 14.1175V8.1325C4.5 7.03649 4.9583 5.98538 5.77409 5.21038C6.58987 4.43539 7.69631 4 8.85 4ZM8.7 5.425C7.98392 5.425 7.29716 5.69524 6.79081 6.17627C6.28446 6.6573 6 7.30972 6 7.99V14.26C6 15.6779 7.2075 16.825 8.7 16.825H15.3C16.0161 16.825 16.7028 16.5548 17.2092 16.0737C17.7155 15.5927 18 14.9403 18 14.26V7.99C18 6.57212 16.7925 5.425 15.3 5.425H8.7ZM15.9375 6.49375C16.1861 6.49375 16.4246 6.58758 16.6004 6.75461C16.7762 6.92163 16.875 7.14817 16.875 7.38437C16.875 7.62058 16.7762 7.84712 16.6004 8.01414C16.4246 8.18117 16.1861 8.275 15.9375 8.275C15.6889 8.275 15.4504 8.18117 15.2746 8.01414C15.0988 7.84712 15 7.62058 15 7.38437C15 7.14817 15.0988 6.92163 15.2746 6.75461C15.4504 6.58758 15.6889 6.49375 15.9375 6.49375ZM12 7.5625C12.9946 7.5625 13.9484 7.93783 14.6517 8.60593C15.3549 9.27403 15.75 10.1802 15.75 11.125C15.75 12.0698 15.3549 12.976 14.6517 13.6441C13.9484 14.3122 12.9946 14.6875 12 14.6875C11.0054 14.6875 10.0516 14.3122 9.34835 13.6441C8.64509 12.976 8.25 12.0698 8.25 11.125C8.25 10.1802 8.64509 9.27403 9.34835 8.60593C10.0516 7.93783 11.0054 7.5625 12 7.5625ZM12 8.9875C11.4033 8.9875 10.831 9.2127 10.409 9.61356C9.98705 10.0144 9.75 10.5581 9.75 11.125C9.75 11.6919 9.98705 12.2356 10.409 12.6364C10.831 13.0373 11.4033 13.2625 12 13.2625C12.5967 13.2625 13.169 13.0373 13.591 12.6364C14.0129 12.2356 14.25 11.6919 14.25 11.125C14.25 10.5581 14.0129 10.0144 13.591 9.61356C13.169 9.2127 12.5967 8.9875 12 8.9875Z" fill="#89B28F"/>
</svg>
