<svg width="24" height="23" viewBox="0 0 24 23" fill="none" xmlns="http://www.w3.org/2000/svg">
<ellipse cx="12" cy="11.5" rx="12" ry="11.5" fill="#4B7B53"/>
<path d="M17.0813 5.88704C16.3554 5.15405 15.4908 4.57285 14.538 4.17733C13.5853 3.78181 12.5633 3.57988 11.5317 3.58329C7.20917 3.58329 3.68626 7.10621 3.68626 11.4287C3.68626 12.8141 4.05042 14.16 4.73126 15.3475L3.62292 19.4166L7.77917 18.3241C8.92709 18.9495 10.2175 19.282 11.5317 19.282C15.8542 19.282 19.3771 15.7591 19.3771 11.4366C19.3771 9.33871 18.5617 7.36746 17.0813 5.88704ZM11.5317 17.952C10.36 17.952 9.21209 17.6354 8.20667 17.0416L7.96917 16.8991L5.49917 17.5483L6.15626 15.1416L5.99792 14.8962C5.34682 13.8568 5.00116 12.6552 5.00042 11.4287C5.00042 7.83455 7.92959 4.90538 11.5238 4.90538C13.2654 4.90538 14.9042 5.58621 16.1313 6.82121C16.739 7.42594 17.2205 8.14531 17.548 8.9376C17.8756 9.72989 18.0425 10.5793 18.0392 11.4366C18.055 15.0308 15.1258 17.952 11.5317 17.952ZM15.11 13.0754C14.9121 12.9804 13.9463 12.5054 13.7721 12.4341C13.59 12.3708 13.4633 12.3391 13.3288 12.5291C13.1942 12.727 12.8221 13.1704 12.7113 13.297C12.6004 13.4316 12.4817 13.4475 12.2838 13.3445C12.0858 13.2495 11.4525 13.0358 10.7083 12.3708C10.1225 11.8483 9.73459 11.207 9.61584 11.0091C9.50501 10.8112 9.60001 10.7083 9.70292 10.6054C9.79001 10.5183 9.90084 10.3758 9.99584 10.265C10.0908 10.1541 10.1304 10.067 10.1938 9.94038C10.2571 9.80579 10.2254 9.69496 10.1779 9.59996C10.1304 9.50496 9.73459 8.53913 9.57626 8.14329C9.41792 7.76329 9.25167 7.81079 9.13292 7.80288H8.75292C8.61834 7.80288 8.41251 7.85038 8.23042 8.04829C8.05626 8.24621 7.54959 8.72121 7.54959 9.68704C7.54959 10.6529 8.25417 11.587 8.34917 11.7137C8.44417 11.8483 9.73459 13.8275 11.6979 14.6745C12.165 14.8804 12.5292 14.9991 12.8142 15.0862C13.2813 15.2366 13.7088 15.2129 14.0492 15.1654C14.4292 15.11 15.2129 14.6904 15.3713 14.2312C15.5375 13.772 15.5375 13.3841 15.4821 13.297C15.4267 13.21 15.3079 13.1704 15.11 13.0754Z" fill="#89B28F"/>
</svg>
